<svg xmlns="http://www.w3.org/2000/svg" id="Layer_2" viewBox="0 0 311 501"><defs><style>.cls-1{fill:#fff;}</style></defs><g id="OBJECTS"><path class="cls-1" d="M196.68,496.88l-4.52-.41-3.77,.66-1.63-.96-2.37,1.14-1.32,1.31-3.91-1.94-8.14-1.8-.27-1.09-3.6,.1-4.1-.84-6.36,3.33,.73-2.9-2.43,1.16-3.68-.45-4.77,.55-2.87-3.69-1.65,.03-1.97-.38-6.85,3.86-1.63-1.69-1.09-1.6-4.06,.56-1.72-1.67-5.88,1.75-2.72-1.06-3.87,.76-1.69,.43-1.34,.55-3.6,.13-1.7-.17-2.7,2.58-3.56-1.47-5.53,2.75-4.25-3.06-2.18,.53-.5,.94-2.81,.63-5.13,.63-6.15,1.46-3.45,1.46-1.53-1.85-1.19-1.97-5.04,.2-7.14,2-3.77-2.96-5,1.75-1.42-1.44-1.28-.78-1.57,1.17-2.01-1.7-5.15-.94-3.12-.2,.13-.63-5.04-.86-3.87,1.29-5.36,.36-3.2,3.06-2.76-1.65v-.02l-.04,.02-5.25-16.83,1.13-3.47,.52-6,1.86-13.78-2.14-10.54,1.07-16.56-2.41-18.46,.27-10.21,.96-5.44-2.11-9.38,1.38-5.71-.54-6.34-.65-7.89-.63-17.68-1.03-12.42,.23-17.59,1.15-3.52-.8-15.02-.38-7.76,.94-7.25-.84-3.33,1-4.14-.29-2.81,1.65-3.11-2.01-9.18-1.24-8.3,1.63-6.25,.23-4.96,.61-3.44-.54-5.72,.02-5.24-.59-9.12-.04-9.43-1.9-12.64,.23-9.91,1.51-4.45-.82-6.37-1.47-6.77,.86-3.19,.34-2.68,1.28,.03,.5-10.29-.86-7.78-.15-8.29-.54-5.89,.34-1.22,1.17-10.92-2.11-12.03,.5-3.87v-9.22l.25-8.06,1.38-4.04,.92-10.26,.59-6.78,1.23-10.36,.86-3.21-1.44-3.29-1.9-12.24,1.19-17.55,.19-5.11,.4-1.27-.06-2.63,6.8,1.87,1.03,.23,2.57-1.49,7.18,2.02,4.73-3.31,1.28,.55,1.95,1.19,5.34,1.04,6.07,.17,4.04-1.11,2.47,.5,2.47-1.27,3.22,.45,3.35-1.34,1.88,.45,.9,1.21,3.29-1.03,3.06,.17,4.65,.26,3.89,.78,6.55-.63,2.93,1.32,1.82-.69,3.1-.15,2.78-.88,3.91-1.24,1.3,.31,6.22-3.26-.61,2.3,3.31-2.37,6.89-1.42,3.93-1.27,4.33,2.25,2.05,.41,2.51-.33,6.63-1.01,2.03,.28,2.51-.6,4.31,1.6,4.96-2.45,3.68,2.38,5.59-.35,1.78-.17,2.74-1.24,3.39-.4,.79,1.17,.71,1.9,3.48-1.42,3.29,.45,3.29,.35,3.5-.65,3.56,.89,3.94,.15,2.6-.38,2.78-1.74,2.68-.69,1.51,.69,4.06,.23,.75,.93,1.21,1.01,1.95-1.11,2.83,.51,2.43,.55,3.93-.56,8.39-1.16,2.6-.93,1.53,.91,1.68,1.62,1.95-.08,1.76,.36,1.28-.23,4.06,.81,2.72,.2,1.03-1.19,5.32-.69,3.14-1.19,1.01-.46,4.63,1.39,3.14,1.87,3.1-1.24,3.35-1.26,2.43,1.01,2.32-.96,1.59-1.26,2.55,.91,2.99,1.52h2.8l4.06-.12,.59,.55,1.57,.73,.63,.28,.54-.31,10.32-.17,.96,.13,4.65-.23,8.27,13.32,.67,9.18-.67,11.55-.33,9.46-1.61,6.02,.92,3.06,.63,9.48-2.68,6.45,1.11,7.64,.12,3.47,1.57,10.31-1.93,3.67,2.39,11.25-.59,13.02,1.42,1.94-.67,6.43-1.15-.13,1.03,3.14,.46,6.9,.02,4.15,.13,1.52-2.09,3.44,.88,9.51-1.23,25.68,.92,7.18,.46,13.65-1.86,4.37,.44,10.06-1.3,5.51,1.05,7.74,.19,8.93-2.78,4.65,.98,9.55-.19,8.11-.94,3.24,.8,3.42-1.32,4.91,.34,11.8,.27,10.65,.29,11.7-.21,7.11,1.32,8.24-1.59,.43-.56,11.48,1.49,12.01-2.18,7.2,2.05,8.59-1.07,6.58,.71,1.92,1.07,17.34,1.42,3.62-.61,10.6-.84,3.54,.67,9.6,.63,13.25-1.15,2.85,.4,6.04-.29,3.32-1.61,4.27-.57,.56,1.32,9.93-.36,4.91,.02,3.19,.31,5.72-1.3,.13,1.95,10.67-.5,3.31-4.52,8.85-.96,.17-3.16-.68-2.99,.74-8.77,2.81-4.82-1.42-2.11-.1-5.02,1.16-1.17-1.02-2.66,.73-5-.28-4.33,.28-2.24-2.09-6.28,2.76-2.85-1.39-4.17,.78-2.39,.23-.9-.71-4.38,.61-1.22-.27-2.68,.46-5.21,.69-3.33,.1-4.54,2.71-.77-2.3-1.84-.69-1.86-.3-1.99-.74-1.32,.98-4.12-2.03-1.82,1.8-1.97,.81-2.01,.55-3.2-.86h-1.59l-1.34-1.32Z"/></g></svg>