<svg xmlns="http://www.w3.org/2000/svg" id="Layer_2" viewBox="0 0 258 110"><defs><style>.cls-1{fill:#2b2b2b;}</style></defs><g id="Layer_1-2"><path class="cls-1" d="M257.74,31.05v-.94l-.4-1.56-.84-.72,.95,.03,.56-1.46-1.18-.44,.49-2.95-1.97-2.54,1.59-.83-1.29-2.33-.12-.79-.92-1.73,2.23-1.46-.53-2.15-.76-.69,1.33-1.36,.29-2.14,.56-2.61-.56-2.08-.07-2.3H4.09l.04,.59-.32,.29-.16,1.16-1,3.98,1.58,2.77,1.19,.74-.71,.73-1.02,2.35-.48,1.54-.76,2.32-1.15,.91-.2,1.83v2.09l-.42,.87,1.75,2.72-.97,2.47-.27,.28,.45,1.33,.11,1.88,.72,1.76-.41,2.33H.99l-.27,.6-.72,.72,1.22,1.53,.66,1.44-1.24,1.01-.19,2.24,1.58,2.86,.04,2.14,.48,2.06v1.18l.44,1.3-.51,.78-.2,1.12-1.35,1.42,1.03,1.88,1.66,2.08-1.38,.7,.24,.64-.83,.94,.7,.76-.78,1.64,.31,1.76,.66,3.4-.95,.8-.21,3.98,.87,2.81,.51,4,.55,1.79,.45,1.43-1.15,1.29,1.76,2.13-.81,1.23-.22,2.32,1.98,4.18-.88,3.75,1.77,2.39-1.54,3.12-.43,1.36-.94,.78,1.77,3.52H253.36l.68-1.51,.41-.75-1.62-2.42,1.08-.03-.26-1.29-.02-.72,.3-1.11-1.09-2.25,.45-.13,1.35-.96,.24-.76-.34-1.37,.96-.65-.52-3-.56-2.17,.7-.8,.5-2.4-1.19-.82-.88-3.93-.58-.43,.89-1.49-1.7-1.95,1.8-1.63-1.23-2.72,.46-2.6,1.33-.09-1.09-1.87,.18-1.61-.25-2.65-.22-2.41-.27-2.67,1.08-1.12-.65-.77,.78-.73,.15-1.83-.82-2.17,2.31-1.06-.16-2.02-.86-1.76,1.08-1.24-.37-2.28,1.54-.99-.39-3.09-.75-1.62,1.01-5.82-.72-2.15,1.74-.78-.11-.35Z"/></g></svg>